<svg xmlns="http://www.w3.org/2000/svg" width="1280" height="40" viewBox="0 0 1280 40" role="presentation" aria-hidden="true">
  <defs>
    <linearGradient id="tape" x1="0" y1="0" x2="1" y2="0">
      <stop offset="0%" stop-color="#ffffff"/>
      <stop offset="18%" stop-color="#ffffff" stop-opacity="0"/>
      <stop offset="82%" stop-color="#ffffff" stop-opacity="0"/>
      <stop offset="100%" stop-color="#ffffff"/>
    </linearGradient>
    <linearGradient id="rail" x1="0" y1="0" x2="1" y2="0">
      <stop offset="0%" stop-color="#1f9e7f" stop-opacity="0"/>
      <stop offset="50%" stop-color="#1f9e7f" stop-opacity=".28"/>
      <stop offset="100%" stop-color="#1f9e7f" stop-opacity="0"/>
    </linearGradient>
  </defs>
  <rect y="19.5" width="1280" height="1" fill="url(#rail)"/>
  <g><path d="M30 21l3.4 3.6L39 16" stroke="#0f766e" stroke-width="2.1" stroke-linecap="round" stroke-linejoin="round" fill="none"/><path d="M56 16l8 8M64 16l-8 8" stroke="#b3323e" stroke-width="2.1" stroke-linecap="round"/><path d="M73 21l3.4 3.6L82 16" stroke="#0f766e" stroke-width="2.1" stroke-linecap="round" stroke-linejoin="round" fill="none"/><path d="M95 16l8 8M103 16l-8 8" stroke="#b3323e" stroke-width="2.1" stroke-linecap="round"/><circle cx="118" cy="20" r="2.4" fill="#c3ccd4"/><path d="M138 16l8 8M146 16l-8 8" stroke="#b3323e" stroke-width="2.1" stroke-linecap="round"/><circle cx="161" cy="20" r="2.4" fill="#c3ccd4"/><path d="M176 16l8 8M184 16l-8 8" stroke="#b3323e" stroke-width="2.1" stroke-linecap="round"/><circle cx="201" cy="20" r="2.4" fill="#c3ccd4"/><path d="M223 21l3.4 3.6L232 16" stroke="#0f766e" stroke-width="2.1" stroke-linecap="round" stroke-linejoin="round" fill="none"/><path d="M243 21l3.4 3.6L252 16" stroke="#0f766e" stroke-width="2.1" stroke-linecap="round" stroke-linejoin="round" fill="none"/><circle cx="274" cy="20" r="2.4" fill="#c3ccd4"/><path d="M290 16l8 8M298 16l-8 8" stroke="#b3323e" stroke-width="2.1" stroke-linecap="round"/><circle cx="317" cy="20" r="2.4" fill="#c3ccd4"/><path d="M339 21l3.4 3.6L348 16" stroke="#0f766e" stroke-width="2.1" stroke-linecap="round" stroke-linejoin="round" fill="none"/><path d="M356 21l3.4 3.6L365 16" stroke="#0f766e" stroke-width="2.1" stroke-linecap="round" stroke-linejoin="round" fill="none"/><path d="M373 21l3.4 3.6L382 16" stroke="#0f766e" stroke-width="2.1" stroke-linecap="round" stroke-linejoin="round" fill="none"/><path d="M394 21l3.4 3.6L403 16" stroke="#0f766e" stroke-width="2.1" stroke-linecap="round" stroke-linejoin="round" fill="none"/><path d="M417 21l3.4 3.6L426 16" stroke="#0f766e" stroke-width="2.1" stroke-linecap="round" stroke-linejoin="round" fill="none"/><path d="M443 21l3.4 3.6L452 16" stroke="#0f766e" stroke-width="2.1" stroke-linecap="round" stroke-linejoin="round" fill="none"/><path d="M468 21l3.4 3.6L477 16" stroke="#0f766e" stroke-width="2.1" stroke-linecap="round" stroke-linejoin="round" fill="none"/><path d="M486 21l3.4 3.6L495 16" stroke="#0f766e" stroke-width="2.1" stroke-linecap="round" stroke-linejoin="round" fill="none"/><path d="M510 21l3.4 3.6L519 16" stroke="#0f766e" stroke-width="2.1" stroke-linecap="round" stroke-linejoin="round" fill="none"/><path d="M536 21l3.4 3.6L545 16" stroke="#0f766e" stroke-width="2.1" stroke-linecap="round" stroke-linejoin="round" fill="none"/><path d="M557 21l3.4 3.6L566 16" stroke="#0f766e" stroke-width="2.1" stroke-linecap="round" stroke-linejoin="round" fill="none"/><path d="M577 16l8 8M585 16l-8 8" stroke="#b3323e" stroke-width="2.1" stroke-linecap="round"/><path d="M595 21l3.4 3.6L604 16" stroke="#0f766e" stroke-width="2.1" stroke-linecap="round" stroke-linejoin="round" fill="none"/><path d="M619 21l3.4 3.6L628 16" stroke="#0f766e" stroke-width="2.1" stroke-linecap="round" stroke-linejoin="round" fill="none"/><path d="M636 21l3.4 3.6L645 16" stroke="#0f766e" stroke-width="2.1" stroke-linecap="round" stroke-linejoin="round" fill="none"/><path d="M658 21l3.4 3.6L667 16" stroke="#0f766e" stroke-width="2.1" stroke-linecap="round" stroke-linejoin="round" fill="none"/><path d="M677 21l3.4 3.6L686 16" stroke="#0f766e" stroke-width="2.1" stroke-linecap="round" stroke-linejoin="round" fill="none"/><circle cx="700" cy="20" r="2.4" fill="#c3ccd4"/><path d="M718 16l8 8M726 16l-8 8" stroke="#b3323e" stroke-width="2.1" stroke-linecap="round"/><path d="M743 21l3.4 3.6L752 16" stroke="#0f766e" stroke-width="2.1" stroke-linecap="round" stroke-linejoin="round" fill="none"/><path d="M762 21l3.4 3.6L771 16" stroke="#0f766e" stroke-width="2.1" stroke-linecap="round" stroke-linejoin="round" fill="none"/><path d="M779 21l3.4 3.6L788 16" stroke="#0f766e" stroke-width="2.1" stroke-linecap="round" stroke-linejoin="round" fill="none"/><path d="M801 16l8 8M809 16l-8 8" stroke="#b3323e" stroke-width="2.1" stroke-linecap="round"/><path d="M818 21l3.4 3.6L827 16" stroke="#0f766e" stroke-width="2.1" stroke-linecap="round" stroke-linejoin="round" fill="none"/><path d="M845 21l3.4 3.6L854 16" stroke="#0f766e" stroke-width="2.1" stroke-linecap="round" stroke-linejoin="round" fill="none"/><path d="M863 16l8 8M871 16l-8 8" stroke="#b3323e" stroke-width="2.1" stroke-linecap="round"/><path d="M885 21l3.4 3.6L894 16" stroke="#0f766e" stroke-width="2.1" stroke-linecap="round" stroke-linejoin="round" fill="none"/><path d="M903 21l3.4 3.6L912 16" stroke="#0f766e" stroke-width="2.1" stroke-linecap="round" stroke-linejoin="round" fill="none"/><path d="M928 21l3.4 3.6L937 16" stroke="#0f766e" stroke-width="2.1" stroke-linecap="round" stroke-linejoin="round" fill="none"/><circle cx="949" cy="20" r="2.4" fill="#c3ccd4"/><path d="M964 16l8 8M972 16l-8 8" stroke="#b3323e" stroke-width="2.1" stroke-linecap="round"/><path d="M986 21l3.4 3.6L995 16" stroke="#0f766e" stroke-width="2.1" stroke-linecap="round" stroke-linejoin="round" fill="none"/><path d="M1013 21l3.4 3.6L1022 16" stroke="#0f766e" stroke-width="2.1" stroke-linecap="round" stroke-linejoin="round" fill="none"/><circle cx="1035" cy="20" r="2.4" fill="#c3ccd4"/><circle cx="1058" cy="20" r="2.4" fill="#c3ccd4"/><circle cx="1075" cy="20" r="2.4" fill="#c3ccd4"/><path d="M1097 21l3.4 3.6L1106 16" stroke="#0f766e" stroke-width="2.1" stroke-linecap="round" stroke-linejoin="round" fill="none"/><path d="M1124 21l3.4 3.6L1133 16" stroke="#0f766e" stroke-width="2.1" stroke-linecap="round" stroke-linejoin="round" fill="none"/><path d="M1150 21l3.4 3.6L1159 16" stroke="#0f766e" stroke-width="2.1" stroke-linecap="round" stroke-linejoin="round" fill="none"/><path d="M1168 21l3.4 3.6L1177 16" stroke="#0f766e" stroke-width="2.1" stroke-linecap="round" stroke-linejoin="round" fill="none"/><path d="M1195 21l3.4 3.6L1204 16" stroke="#0f766e" stroke-width="2.1" stroke-linecap="round" stroke-linejoin="round" fill="none"/><circle cx="1220" cy="20" r="2.4" fill="#c3ccd4"/><path d="M1238 21l3.4 3.6L1247 16" stroke="#0f766e" stroke-width="2.1" stroke-linecap="round" stroke-linejoin="round" fill="none"/></g>
  <rect width="1280" height="40" fill="url(#tape)"/>
</svg>
